<svg width="100%" height="100%" viewBox="0 0 156 40" fill="none" xmlns="http://www.w3.org/2000/svg">
<rect y="24.585" width="7.85383" height="7.85383" rx="0.0275327" fill="#32EDCB"/>
<rect y="16.3892" width="7.85383" height="7.85383" rx="0.0275327" fill="#32EDCB"/>
<rect y="8.19678" width="7.85383" height="7.85383" rx="0.0275327" fill="#32EDCB"/>
<rect x="8.19629" width="7.85383" height="7.85383" rx="0.0275327" fill="#32EDCB"/>
<rect x="16.3906" width="7.85383" height="7.85383" rx="0.0275327" fill="#32EDCB"/>
<rect x="24.5859" y="8.19678" width="7.85383" height="7.85383" rx="0.0275327" fill="#32EDCB"/>
<rect x="16.3906" y="16.3892" width="7.85383" height="7.85383" rx="0.0275327" fill="#32EDCB"/>
<rect x="24.5859" y="24.585" width="7.85383" height="7.85383" rx="0.0275327" fill="#32EDCB"/>
<path d="M136.795 25.0865V11.8514H139.131V14.0313C139.727 12.5781 140.947 11.54 142.816 11.54C144.58 11.54 146.033 12.3964 146.604 14.2649C147.149 12.7078 148.525 11.54 150.497 11.54C152.807 11.54 154.597 12.8635 154.597 16.2631V25.0865H152.262V16.5226C152.262 14.6023 151.561 13.4085 149.848 13.4085C148.213 13.4085 146.864 15.0434 146.864 17.3531V25.0865H144.528V16.5226C144.528 14.6023 143.828 13.4085 142.115 13.4085C140.48 13.4085 139.131 15.0434 139.131 17.3531V25.0865H136.795Z" fill="black"/>
<path d="M125.979 25.3979C124.681 25.3979 123.565 24.9826 122.813 24.2041C122.138 23.5034 121.723 22.4914 121.723 21.4533C121.723 19.3772 123.046 17.7164 125.667 17.4828L129.975 17.0935V16.0296C129.975 13.9794 128.859 13.4085 127.224 13.4085C125.589 13.4085 124.499 14.1092 124.499 15.796H122.164C122.164 13.3047 124.422 11.54 127.25 11.54C130.105 11.54 132.259 12.9414 132.259 16.0555V23.0882H134.231V25.0865H130.286L130.235 22.6471H130.131C129.404 24.5155 127.951 25.3979 125.979 25.3979ZM126.575 23.5294C128.678 23.5294 129.975 21.8685 129.975 19.481V18.8842L125.278 19.3253C124.318 19.4032 124.188 19.8444 124.188 20.5969V21.7647C124.188 22.9844 125.096 23.5294 126.575 23.5294Z" fill="black"/>
<path d="M118.226 25.0861H115.89V22.9322C115.06 24.5152 113.684 25.3975 111.712 25.3975C108.131 25.3975 106.418 22.3094 106.418 18.4686C106.418 14.6279 108.105 11.5397 111.66 11.5397C113.632 11.5397 115.06 12.422 115.89 14.0051V7.43945H118.226V25.0861ZM115.89 19.5845V17.3527C115.89 15.069 114.593 13.4082 112.257 13.4082C110.337 13.4082 108.883 14.6279 108.883 16.4185V20.5188C108.883 22.3094 110.337 23.5291 112.257 23.5291C114.593 23.5291 115.89 21.8682 115.89 19.5845Z" fill="black"/>
<path d="M97.5605 25.3979C93.538 25.3979 91.6177 22.5173 91.6177 18.469C91.6177 14.4206 93.538 11.54 97.5605 11.54C101.583 11.54 103.503 14.4206 103.503 18.469C103.503 22.5173 101.583 25.3979 97.5605 25.3979ZM101.038 20.5191V16.4188C101.038 14.6023 99.4289 13.4085 97.5605 13.4085C95.692 13.4085 94.083 14.6023 94.083 16.4188V20.5191C94.083 22.3356 95.692 23.5294 97.5605 23.5294C99.4289 23.5294 101.038 22.3356 101.038 20.5191Z" fill="black"/>
<path d="M76.9111 25.0861V7.43945H79.2467V14.0051C80.0772 12.422 81.4785 11.5397 83.4767 11.5397C87.032 11.5397 88.7188 14.6279 88.7188 18.4686C88.7188 22.3094 87.032 25.3975 83.4767 25.3975C81.4785 25.3975 80.0772 24.5152 79.2467 22.9322V25.0861H76.9111ZM79.2467 19.5845C79.2467 21.8682 80.5443 23.5291 82.8799 23.5291C84.8262 23.5291 86.2535 22.3094 86.2535 20.5188V16.4185C86.2535 14.6279 84.8262 13.4082 82.8799 13.4082C80.5443 13.4082 79.2467 15.069 79.2467 17.3527V19.5845Z" fill="black"/>
<path d="M67.3529 25.3979C63.3305 25.3979 61.4102 22.5173 61.4102 18.469C61.4102 14.4206 63.3305 11.54 67.3529 11.54C71.3753 11.54 73.2957 14.4206 73.2957 18.469C73.2957 22.5173 71.3753 25.3979 67.3529 25.3979ZM70.8304 20.5191V16.4188C70.8304 14.6023 69.2214 13.4085 67.3529 13.4085C65.4845 13.4085 63.8755 14.6023 63.8755 16.4188V20.5191C63.8755 22.3356 65.4845 23.5294 67.3529 23.5294C69.2214 23.5294 70.8304 22.3356 70.8304 20.5191Z" fill="black"/>
<path d="M51.8767 17.6382H48.9702V25.0861H46.5049V7.43945H53.1483C54.9649 7.43945 56.4182 7.85467 57.3524 8.71105C58.2866 9.56743 58.6759 10.865 58.6759 12.4999C58.6759 14.057 58.3126 15.3286 57.4043 16.2368C56.7296 16.9116 55.8472 17.4046 54.4718 17.5603L58.8316 25.0861H56.0029L51.8767 17.6382ZM48.9702 15.5362H54.0566C55.3542 15.5362 56.0808 14.6019 56.0808 13.512V11.5657C56.0808 10.3719 55.3023 9.64529 54.0566 9.64529H48.9702V15.5362Z" fill="black"/>
<path d="M153.75 39.7927V34.0834C153.75 32.8032 153.335 32.0074 152.003 32.0074C150.723 32.0074 149.806 33.0973 149.806 34.6371V39.7927H148.249V30.9693H149.806V32.4226C150.29 31.4018 151.103 30.7617 152.435 30.7617C154.148 30.7617 155.307 31.6614 155.307 33.9104V39.7927H153.75Z" fill="black"/>
<path d="M141.037 40.0003C140.172 40.0003 139.428 39.7235 138.926 39.2044C138.477 38.7373 138.2 38.0626 138.2 37.3706C138.2 35.9865 139.082 34.8793 140.829 34.7236L143.701 34.4641V33.7547C143.701 32.388 142.957 32.0074 141.867 32.0074C140.778 32.0074 140.051 32.4745 140.051 33.599H138.494C138.494 31.9382 139.999 30.7617 141.885 30.7617C143.788 30.7617 145.224 31.696 145.224 33.772V38.4605H146.539V39.7927H143.909L143.874 38.1664H143.805C143.321 39.412 142.352 40.0003 141.037 40.0003ZM141.435 38.7546C142.836 38.7546 143.701 37.6474 143.701 36.0557V35.6578L140.57 35.9519C139.93 36.0038 139.843 36.2979 139.843 36.7996V37.5782C139.843 38.3913 140.449 38.7546 141.435 38.7546Z" fill="black"/>
<path d="M129.078 35.4502C129.078 32.6129 130.462 30.7617 132.867 30.7617C134.735 30.7617 136.206 31.7306 136.379 33.8585H134.822C134.701 32.4226 133.819 32.0074 132.78 32.0074C131.742 32.0074 130.722 32.7167 130.722 34.0834V36.6785C130.722 37.9415 131.656 38.7546 132.798 38.7546C133.94 38.7546 134.787 38.1491 134.891 36.8342H136.448C136.206 39.0141 134.632 40.0003 132.832 40.0003C130.272 40.0003 129.078 38.0799 129.078 35.4502Z" fill="black"/>
<path d="M123.786 40.0003C121.797 40.0003 120.24 38.9795 120.205 37.0073H121.762C121.797 38.1837 122.731 38.7546 123.804 38.7546C124.842 38.7546 125.724 38.2702 125.724 37.4052C125.724 36.6958 125.326 36.2806 124.15 36.0557L122.696 35.7616C121.26 35.4675 120.43 34.6544 120.43 33.2703C120.43 31.869 121.745 30.7617 123.665 30.7617C125.326 30.7617 126.97 31.6095 127.004 33.599H125.447C125.413 32.4399 124.617 32.0074 123.683 32.0074C122.714 32.0074 121.952 32.5264 121.952 33.253C121.952 33.945 122.333 34.3084 123.198 34.4814L124.686 34.7928C126.433 35.1561 127.281 35.9692 127.281 37.3879C127.281 38.8411 125.862 40.0003 123.786 40.0003Z" fill="black"/>
</svg>
