<svg width="22" height="22" viewBox="0 0 22 22" fill="none" xmlns="http://www.w3.org/2000/svg">
<path d="M10.945 17.6C11.33 17.6 11.6554 17.4671 11.9213 17.2013C12.1871 16.9354 12.32 16.61 12.32 16.225C12.32 15.84 12.1871 15.5146 11.9213 15.2488C11.6554 14.9829 11.33 14.85 10.945 14.85C10.56 14.85 10.2346 14.9829 9.96875 15.2488C9.70292 15.5146 9.57 15.84 9.57 16.225C9.57 16.61 9.70292 16.9354 9.96875 17.2013C10.2346 17.4671 10.56 17.6 10.945 17.6ZM9.955 13.365H11.99C11.99 12.76 12.0588 12.2833 12.1963 11.935C12.3338 11.5867 12.7233 11.11 13.365 10.505C13.8417 10.0283 14.2175 9.57458 14.4925 9.14375C14.7675 8.71292 14.905 8.195 14.905 7.59C14.905 6.56333 14.5292 5.775 13.7775 5.225C13.0258 4.675 12.1367 4.4 11.11 4.4C10.065 4.4 9.21708 4.675 8.56625 5.225C7.91542 5.775 7.46167 6.435 7.205 7.205L9.02 7.92C9.11167 7.59 9.31792 7.2325 9.63875 6.8475C9.95958 6.4625 10.45 6.27 11.11 6.27C11.6967 6.27 12.1367 6.43042 12.43 6.75125C12.7233 7.07208 12.87 7.425 12.87 7.81C12.87 8.17667 12.76 8.52042 12.54 8.84125C12.32 9.16208 12.045 9.46 11.715 9.735C10.9083 10.45 10.4133 10.9908 10.23 11.3575C10.0467 11.7242 9.955 12.3933 9.955 13.365ZM11 22C9.47833 22 8.04833 21.7113 6.71 21.1338C5.37167 20.5562 4.2075 19.7725 3.2175 18.7825C2.2275 17.7925 1.44375 16.6283 0.86625 15.29C0.28875 13.9517 0 12.5217 0 11C0 9.47833 0.28875 8.04833 0.86625 6.71C1.44375 5.37167 2.2275 4.2075 3.2175 3.2175C4.2075 2.2275 5.37167 1.44375 6.71 0.86625C8.04833 0.28875 9.47833 0 11 0C12.5217 0 13.9517 0.28875 15.29 0.86625C16.6283 1.44375 17.7925 2.2275 18.7825 3.2175C19.7725 4.2075 20.5562 5.37167 21.1338 6.71C21.7113 8.04833 22 9.47833 22 11C22 12.5217 21.7113 13.9517 21.1338 15.29C20.5562 16.6283 19.7725 17.7925 18.7825 18.7825C17.7925 19.7725 16.6283 20.5562 15.29 21.1338C13.9517 21.7113 12.5217 22 11 22ZM11 19.8C13.4567 19.8 15.5375 18.9475 17.2425 17.2425C18.9475 15.5375 19.8 13.4567 19.8 11C19.8 8.54333 18.9475 6.4625 17.2425 4.7575C15.5375 3.0525 13.4567 2.2 11 2.2C8.54333 2.2 6.4625 3.0525 4.7575 4.7575C3.0525 6.4625 2.2 8.54333 2.2 11C2.2 13.4567 3.0525 15.5375 4.7575 17.2425C6.4625 18.9475 8.54333 19.8 11 19.8Z" fill="#0057FF"/>
</svg>
