<svg width="30" height="30" viewBox="0 0 30 30" fill="none" xmlns="http://www.w3.org/2000/svg">
<path d="M15 15C19.1438 15 22.5 11.6438 22.5 7.5C22.5 3.35625 19.1438 0 15 0C10.8562 0 7.5 3.35625 7.5 7.5C7.5 11.6438 10.8562 15 15 15ZM15 3.75C17.0625 3.75 18.75 5.4375 18.75 7.5C18.75 9.5625 17.0625 11.25 15 11.25C12.9375 11.25 11.25 9.5625 11.25 7.5C11.25 5.4375 12.9375 3.75 15 3.75Z" fill="#0E5044"/>
<path d="M26.9812 19.8C23.8312 18.1875 19.7437 16.875 15 16.875C10.2563 16.875 6.16875 18.1875 3.01875 19.8C1.14375 20.7563 0 22.6875 0 24.7875V30H30V24.7875C30 22.6875 28.8562 20.7563 26.9812 19.8ZM26.25 26.25H3.75V24.7875C3.75 24.075 4.125 23.4375 4.725 23.1375C6.95625 21.9938 10.5563 20.625 15 20.625C19.4438 20.625 23.0437 21.9938 25.275 23.1375C25.875 23.4375 26.25 24.075 26.25 24.7875V26.25Z" fill="#0E5044"/>
</svg>
